<?xml version="1.0" encoding="utf-8"?>
<!-- Generator: Adobe Illustrator 16.0.3, SVG Export Plug-In . SVG Version: 6.00 Build 0)  -->
<!DOCTYPE svg PUBLIC "-//W3C//DTD SVG 1.1//EN" "http://www.w3.org/Graphics/SVG/1.1/DTD/svg11.dtd">
<svg version="1.1" id="圖層_1" xmlns="http://www.w3.org/2000/svg" xmlns:xlink="http://www.w3.org/1999/xlink" x="0px" y="0px"
	 width="424.289px" height="80.604px" viewBox="0 0 424.289 80.604" enable-background="new 0 0 424.289 80.604"
	 xml:space="preserve">
<path d="M86.637,40.685c0,19.202-15.623,34.824-34.827,34.824c-19.199,0-34.821-15.623-34.821-34.824S32.612,5.861,51.81,5.861
	C71.014,5.861,86.637,21.484,86.637,40.685z M18.524,40.685c0,18.354,14.93,33.289,33.285,33.289
	c18.358,0,33.292-14.934,33.292-33.289c0-18.354-14.933-33.288-33.292-33.288C33.455,7.397,18.524,22.331,18.524,40.685z"/>
<g>
	<path d="M18.754,0.768v1.119c3.421,0.257,6.13,1.368,8.114,3.331c1.264,1.199,2.085,2.848,2.458,4.944
		c0.312,1.651,0.465,3.486,0.465,5.523L29.667,62.94c0,2.488-0.284,4.574-0.858,6.271c-0.571,1.69-1.373,3.065-2.4,4.126
		c-1.034,1.062-2.255,1.823-3.64,2.268c-1.397,0.45-2.896,0.674-4.495,0.674c-3.256,0-6.116-0.756-8.594-2.264
		c1.143-0.829,2.019-1.829,2.636-3.009c0.61-1.163,0.922-2.346,0.922-3.527c0-0.832-0.154-1.624-0.438-2.376
		c-0.287-0.759-0.708-1.412-1.26-1.978c-0.56-0.556-1.222-1.01-2.01-1.345c-0.774-0.348-1.663-0.52-2.658-0.52
		c-0.916,0-1.787,0.156-2.609,0.459c-0.816,0.309-1.542,0.743-2.173,1.294c-0.626,0.564-1.14,1.254-1.521,2.089
		C0.193,65.93,0,66.879,0,67.961c0,1.66,0.459,3.252,1.369,4.782c0.922,1.533,2.186,2.872,3.81,4.021
		c1.626,1.157,3.546,2.086,5.764,2.79c2.207,0.704,4.617,1.049,7.216,1.049c3.474,0,6.605-0.608,9.42-1.838
		c2.799-1.226,5.181-2.833,7.128-4.834c1.956-2.001,3.449-4.284,4.501-6.854c1.046-2.579,1.572-5.217,1.572-7.917l0.206-43.433
		c0-3.418,0.244-5.952,0.744-7.598c0.495-1.645,1.396-2.989,2.69-4.021c0.925-0.741,1.94-1.282,3.035-1.599
		c1.091-0.324,2.551-0.529,4.356-0.626V0.768H18.754z"/>
	<path fill="#C30D23" d="M51.837,36.529c3.621,0,6.548-2.914,6.548-6.505s-2.927-6.505-6.548-6.505
		c-3.613,0-6.542,2.914-6.542,6.505S48.224,36.529,51.837,36.529z"/>
	<g>
		<path d="M54.527,57.414V46.546c0-2.829,2.285-5.121,5.105-5.121v-1.847H44.047v1.847h0.136c2.823,0,5.109,2.292,5.109,5.121
			v10.868c0,2.829-2.286,5.121-5.109,5.121h-0.136v1.905h15.586v-1.905C56.813,62.535,54.527,60.243,54.527,57.414z"/>
	</g>
	<g>
		<path d="M64.207,42.638c3.247-1.693,6.366-2.537,9.368-2.537c2.739,0,4.791,0.702,6.155,2.106c1.362,1.403,2.04,3.413,2.021,6.053
			L81.64,59.13c-0.027,0.887-0.015,1.605,0.045,2.146c0.06,0.544,0.206,0.956,0.417,1.242c0.227,0.284,0.553,0.489,0.988,0.61
			c0.438,0.121,1.061,0.193,1.884,0.211l0.139,1.197c-2.134,0.84-3.969,1.26-5.508,1.26c-2.074,0-3.44-0.934-4.093-2.796
			c-1.929,1.862-3.975,2.796-6.143,2.796c-2.112,0-3.863-0.606-5.232-1.815c-1.369-1.209-2.055-2.914-2.055-5.109
			c0-2.739,1.109-4.749,3.322-6.016c2.219-1.272,5.542-1.91,9.973-1.91l0.024-1.956c0.015-1.871-0.378-3.247-1.176-4.123
			c-0.798-0.88-2.044-1.318-3.733-1.318c-1.569,0-3.449,0.394-5.644,1.18L64.207,42.638z M75.376,53.433
			c-2.385,0-4.097,0.351-5.118,1.043c-1.016,0.702-1.523,1.896-1.523,3.585c0,1.533,0.36,2.627,1.082,3.276
			c0.719,0.659,1.578,0.982,2.57,0.982c1.125,0,2.107-0.327,2.944-0.995L75.376,53.433z"/>
	</g>
</g>
<path d="M123.231,48.046l4.547,1.148c-0.953,3.734-2.668,6.582-5.145,8.543c-2.477,1.961-5.504,2.941-9.082,2.941
	c-3.703,0-6.715-0.755-9.035-2.263c-2.32-1.508-4.086-3.69-5.297-6.551c-1.211-2.86-1.816-5.93-1.816-9.211
	c0-3.578,0.684-6.699,2.051-9.363c1.367-2.664,3.313-4.688,5.836-6.069c2.523-1.383,5.301-2.074,8.332-2.074
	c3.438,0,6.328,0.875,8.672,2.625c2.344,1.75,3.977,4.211,4.898,7.383l-4.477,1.055c-0.797-2.5-1.953-4.319-3.469-5.461
	c-1.516-1.141-3.422-1.711-5.719-1.711c-2.641,0-4.848,0.633-6.621,1.898c-1.773,1.265-3.02,2.965-3.738,5.098
	c-0.718,2.133-1.078,4.332-1.078,6.598c0,2.923,0.426,5.474,1.277,7.652c0.851,2.179,2.176,3.81,3.973,4.887
	c1.797,1.078,3.742,1.617,5.836,1.617c2.547,0,4.703-0.733,6.469-2.203C121.411,53.116,122.606,50.937,123.231,48.046z"/>
<path d="M130.845,60.094V25.734h4.219v34.359H130.845z"/>
<path d="M155.938,57.023c-1.563,1.328-3.066,2.266-4.512,2.813c-1.446,0.547-2.996,0.82-4.652,0.82
	c-2.734,0-4.836-0.668-6.305-2.004c-1.469-1.336-2.203-3.043-2.203-5.121c0-1.219,0.277-2.332,0.832-3.34
	c0.555-1.008,1.281-1.816,2.18-2.426c0.899-0.61,1.91-1.07,3.035-1.384c0.828-0.219,2.078-0.43,3.75-0.633
	c3.406-0.405,5.914-0.891,7.523-1.453c0.016-0.577,0.023-0.944,0.023-1.102c0-1.719-0.398-2.93-1.195-3.633
	c-1.078-0.953-2.68-1.431-4.805-1.431c-1.984,0-3.449,0.349-4.395,1.043c-0.946,0.695-1.645,1.927-2.098,3.691l-4.125-0.563
	c0.375-1.767,0.992-3.191,1.852-4.277c0.86-1.086,2.102-1.922,3.727-2.508s3.508-0.879,5.648-0.879c2.125,0,3.852,0.25,5.18,0.75
	s2.305,1.129,2.93,1.887s1.063,1.715,1.313,2.871c0.141,0.719,0.211,2.016,0.211,3.891v5.625c0,3.922,0.09,6.402,0.27,7.441
	c0.18,1.039,0.535,2.035,1.066,2.987h-4.406C156.344,59.219,156.063,58.195,155.938,57.023z M155.586,47.601
	c-1.531,0.625-3.828,1.155-6.891,1.594c-1.734,0.25-2.961,0.531-3.68,0.844c-0.719,0.313-1.273,0.771-1.664,1.371
	c-0.391,0.602-0.586,1.271-0.586,2.004c0,1.125,0.426,2.063,1.277,2.813s2.098,1.125,3.738,1.125c1.625,0,3.07-0.355,4.336-1.066
	c1.266-0.711,2.195-1.684,2.789-2.918c0.453-0.953,0.68-2.358,0.68-4.219L155.586,47.601L155.586,47.601z"/>
<path fill="#C30D23" d="M164.435,30.585v-4.852h4.219v4.852H164.435z M164.435,60.094V35.203h4.219v24.892L164.435,60.094
	L164.435,60.094z"/>
<path d="M172.886,60.094V35.203h3.797v3.773c0.969-1.767,1.863-2.931,2.684-3.492c0.821-0.563,1.723-0.844,2.707-0.844
	c1.422,0,2.867,0.453,4.336,1.358l-1.453,3.914c-1.031-0.608-2.063-0.914-3.094-0.914c-0.922,0-1.75,0.277-2.484,0.832
	c-0.734,0.556-1.258,1.324-1.57,2.31c-0.469,1.5-0.703,3.141-0.703,4.922v13.031H172.886z"/>
<path d="M204.771,52.078l4.359,0.539c-0.688,2.547-1.961,4.523-3.82,5.93c-1.859,1.407-4.234,2.109-7.125,2.109
	c-3.641,0-6.527-1.121-8.66-3.363c-2.133-2.241-3.199-5.387-3.199-9.434c0-4.188,1.078-7.438,3.234-9.75
	c2.156-2.313,4.953-3.469,8.391-3.469c3.328,0,6.047,1.133,8.156,3.397c2.109,2.266,3.164,5.453,3.164,9.563
	c0,0.25-0.008,0.625-0.023,1.125h-18.563c0.156,2.733,0.93,4.828,2.32,6.28c1.39,1.453,3.125,2.181,5.203,2.181
	c1.547,0,2.867-0.406,3.961-1.219C203.263,55.155,204.13,53.859,204.771,52.078z M190.919,45.257h13.898
	c-0.188-2.094-0.719-3.663-1.594-4.711c-1.344-1.625-3.086-2.438-5.227-2.438c-1.938,0-3.566,0.647-4.887,1.945
	C191.788,41.35,191.06,43.085,190.919,45.257z"/>
<path d="M211.939,37.898l-1.078-6.422v-5.742h4.805v5.742l-1.125,6.422H211.939z"/>
<path d="M217.622,52.664l4.172-0.656c0.233,1.673,0.888,2.953,1.957,3.845c1.069,0.891,2.565,1.336,4.488,1.336
	c1.938,0,3.375-0.396,4.313-1.185c0.938-0.789,1.406-1.715,1.406-2.776c0-0.953-0.414-1.703-1.242-2.25
	c-0.577-0.375-2.016-0.853-4.313-1.431c-3.094-0.78-5.237-1.457-6.434-2.026c-1.195-0.57-2.102-1.359-2.719-2.367
	s-0.926-2.121-0.926-3.34c0-1.109,0.254-2.137,0.762-3.082s1.199-1.73,2.074-2.355c0.656-0.483,1.551-0.895,2.684-1.229
	s2.348-0.504,3.646-0.504c1.952,0,3.668,0.28,5.145,0.844c1.478,0.563,2.566,1.324,3.271,2.285c0.703,0.961,1.188,2.246,1.453,3.854
	l-4.125,0.563c-0.188-1.281-0.73-2.281-1.629-3c-0.899-0.719-2.168-1.078-3.81-1.078c-1.938,0-3.319,0.32-4.147,0.961
	s-1.242,1.391-1.242,2.25c0,0.547,0.172,1.039,0.516,1.477c0.344,0.453,0.883,0.828,1.617,1.125
	c0.422,0.156,1.664,0.517,3.727,1.078c2.984,0.797,5.066,1.449,6.246,1.957s2.105,1.246,2.777,2.215
	c0.672,0.97,1.008,2.173,1.008,3.609c0,1.406-0.41,2.73-1.23,3.973c-0.819,1.243-2.004,2.203-3.551,2.884
	c-1.547,0.68-3.297,1.02-5.25,1.02c-3.233,0-5.699-0.672-7.395-2.016C219.173,57.299,218.09,55.304,217.622,52.664z"/>
<path d="M256.08,60.094V25.734h12.961c2.281,0,4.023,0.109,5.227,0.328c1.688,0.281,3.103,0.815,4.242,1.604
	c1.141,0.789,2.059,1.896,2.754,3.316s1.043,2.983,1.043,4.688c0,2.923-0.93,5.396-2.789,7.418
	c-1.858,2.023-5.219,3.035-10.078,3.035h-8.813v13.97H256.08z M260.627,42.07h8.883c2.938,0,5.023-0.547,6.258-1.641
	c1.235-1.095,1.853-2.634,1.853-4.617c0-1.438-0.363-2.668-1.091-3.691c-0.727-1.022-1.684-1.699-2.87-2.026
	c-0.767-0.203-2.181-0.306-4.242-0.306h-8.789L260.627,42.07L260.627,42.07z"/>
<path d="M283.777,47.648c0-4.609,1.281-8.023,3.845-10.242c2.142-1.844,4.75-2.766,7.828-2.766c3.422,0,6.219,1.121,8.391,3.362
	c2.173,2.242,3.259,5.341,3.259,9.293c0,3.203-0.48,5.724-1.441,7.56s-2.359,3.262-4.195,4.276c-1.836,1.016-3.84,1.523-6.012,1.523
	c-3.484,0-6.301-1.117-8.449-3.352C284.854,55.068,283.777,51.851,283.777,47.648z M288.114,47.648c0,3.188,0.694,5.574,2.086,7.16
	c1.391,1.586,3.141,2.379,5.25,2.379c2.094,0,3.836-0.797,5.227-2.392c1.392-1.594,2.087-4.022,2.087-7.289
	c0-3.077-0.699-5.409-2.099-6.995c-1.399-1.587-3.138-2.38-5.215-2.38c-2.109,0-3.859,0.789-5.25,2.367
	C288.809,42.077,288.114,44.46,288.114,47.648z"/>
<path d="M310.383,60.094V35.203h3.797v3.773c0.969-1.767,1.863-2.931,2.684-3.492c0.822-0.563,1.724-0.844,2.707-0.844
	c1.423,0,2.867,0.453,4.337,1.358l-1.453,3.914c-1.031-0.608-2.063-0.914-3.095-0.914c-0.922,0-1.75,0.277-2.483,0.832
	c-0.733,0.556-1.258,1.324-1.569,2.31c-0.47,1.5-0.703,3.141-0.703,4.922v13.031H310.383z"/>
<path d="M336.648,56.32l0.608,3.727c-1.188,0.25-2.25,0.375-3.188,0.375c-1.53,0-2.719-0.241-3.563-0.727s-1.438-1.121-1.781-1.91
	c-0.343-0.789-0.516-2.449-0.516-4.979v-14.32h-3.094v-3.281h3.094V29.04l4.195-2.53v8.694h4.242v3.281h-4.242V53.04
	c0,1.203,0.074,1.978,0.223,2.32s0.391,0.617,0.727,0.82c0.336,0.202,0.816,0.305,1.441,0.305
	C335.266,56.484,335.882,56.429,336.648,56.32z"/>
<path d="M342.133,60.094V38.484h-3.727v-3.281h3.727v-2.647c0-1.673,0.148-2.914,0.445-3.728c0.406-1.094,1.121-1.979,2.145-2.66
	c1.024-0.68,2.457-1.02,4.301-1.02c1.188,0,2.5,0.141,3.938,0.422l-0.633,3.68c-0.875-0.155-1.703-0.233-2.484-0.233
	c-1.28,0-2.188,0.272-2.719,0.819s-0.797,1.57-0.797,3.07v2.297h4.853v3.281h-4.853v21.609H342.133z"/>
<path d="M351.695,47.648c0-4.609,1.281-8.023,3.845-10.242c2.142-1.844,4.75-2.766,7.828-2.766c3.422,0,6.219,1.121,8.391,3.362
	c2.173,2.242,3.259,5.341,3.259,9.293c0,3.203-0.48,5.724-1.441,7.56s-2.359,3.262-4.195,4.276c-1.836,1.016-3.84,1.523-6.012,1.523
	c-3.484,0-6.301-1.117-8.449-3.352C352.771,55.068,351.695,51.851,351.695,47.648z M356.032,47.648c0,3.188,0.694,5.574,2.086,7.16
	c1.391,1.586,3.141,2.379,5.25,2.379c2.094,0,3.836-0.797,5.228-2.392c1.391-1.594,2.086-4.022,2.086-7.289
	c0-3.077-0.699-5.409-2.099-6.995c-1.399-1.587-3.138-2.38-5.215-2.38c-2.109,0-3.859,0.789-5.25,2.367
	C356.727,42.077,356.032,44.46,356.032,47.648z"/>
<path d="M378.264,60.094V25.734h4.219v34.359H378.264z"/>
<path fill="#C30D23" d="M386.749,30.585v-4.852h4.219v4.852H386.749z M386.749,60.094V35.203h4.219v24.892L386.749,60.094
	L386.749,60.094z"/>
<path d="M394.262,47.648c0-4.609,1.281-8.023,3.844-10.242c2.142-1.844,4.75-2.766,7.828-2.766c3.422,0,6.219,1.121,8.392,3.362
	c2.172,2.242,3.258,5.341,3.258,9.293c0,3.203-0.479,5.724-1.44,7.56s-2.359,3.262-4.195,4.276c-1.836,1.016-3.84,1.523-6.012,1.523
	c-3.484,0-6.302-1.117-8.449-3.352C395.338,55.068,394.262,51.851,394.262,47.648z M398.598,47.648c0,3.188,0.695,5.574,2.086,7.16
	c1.392,1.586,3.142,2.379,5.25,2.379c2.094,0,3.836-0.797,5.228-2.392c1.391-1.594,2.086-4.022,2.086-7.289
	c0-3.077-0.699-5.409-2.099-6.995c-1.398-1.587-3.137-2.38-5.215-2.38c-2.108,0-3.858,0.789-5.25,2.367
	C399.293,42.077,398.598,44.46,398.598,47.648z"/>
</svg>
