<?xml version="1.0" encoding="utf-8"?>
<!-- Generator: Adobe Illustrator 16.0.3, SVG Export Plug-In . SVG Version: 6.00 Build 0)  -->
<!DOCTYPE svg PUBLIC "-//W3C//DTD SVG 1.1//EN" "http://www.w3.org/Graphics/SVG/1.1/DTD/svg11.dtd">
<svg version="1.1" id="圖層_1" xmlns="http://www.w3.org/2000/svg" xmlns:xlink="http://www.w3.org/1999/xlink" x="0px" y="0px"
	 width="86.637px" height="80.604px" viewBox="0 0 86.637 80.604" enable-background="new 0 0 86.637 80.604" xml:space="preserve">
<path d="M86.637,45.779c0,19.202-15.623,34.824-34.827,34.824c-19.199,0-34.821-15.623-34.821-34.824S32.612,10.955,51.81,10.955
	C71.014,10.955,86.637,26.578,86.637,45.779z M18.524,45.779c0,18.355,14.931,33.289,33.285,33.289
	c18.358,0,33.292-14.933,33.292-33.289c0-18.354-14.933-33.288-33.292-33.288C33.455,12.491,18.524,27.424,18.524,45.779z"/>
<g>
	<path d="M18.754,0v1.119c3.421,0.257,6.13,1.369,8.114,3.331c1.264,1.2,2.085,2.848,2.458,4.945
		c0.312,1.65,0.465,3.485,0.465,5.522l-0.124,47.254c0,2.488-0.284,4.574-0.858,6.272c-0.571,1.69-1.373,3.065-2.399,4.126
		c-1.034,1.061-2.256,1.823-3.641,2.267c-1.396,0.45-2.896,0.675-4.495,0.675c-3.256,0-6.115-0.757-8.594-2.265
		c1.144-0.829,2.02-1.829,2.636-3.008c0.61-1.164,0.922-2.346,0.922-3.528c0-0.832-0.153-1.624-0.438-2.376
		c-0.287-0.759-0.708-1.412-1.26-1.977c-0.561-0.556-1.223-1.01-2.011-1.345c-0.773-0.349-1.662-0.521-2.657-0.521
		c-0.916,0-1.787,0.157-2.609,0.459c-0.816,0.31-1.542,0.744-2.173,1.294c-0.626,0.565-1.14,1.254-1.521,2.089
		C0.193,65.162,0,66.111,0,67.193c0,1.66,0.459,3.252,1.369,4.782c0.922,1.532,2.186,2.872,3.81,4.021
		c1.626,1.158,3.546,2.086,5.764,2.79c2.207,0.705,4.617,1.049,7.217,1.049c3.474,0,6.604-0.607,9.42-1.838
		c2.799-1.225,5.181-2.833,7.128-4.834c1.956-2.001,3.449-4.284,4.501-6.853c1.046-2.579,1.571-5.217,1.571-7.917l0.206-43.434
		c0-3.418,0.244-5.952,0.744-7.597c0.495-1.645,1.396-2.99,2.69-4.021c0.925-0.741,1.939-1.282,3.035-1.6
		c1.091-0.324,2.551-0.529,4.355-0.626V0H18.754z"/>
	<path fill="#C30D23" d="M51.837,35.761c3.621,0,6.548-2.914,6.548-6.506c0-3.591-2.927-6.505-6.548-6.505
		c-3.613,0-6.542,2.914-6.542,6.505C45.295,32.847,48.224,35.761,51.837,35.761z"/>
	<g>
		<path d="M54.527,56.646V45.779c0-2.829,2.285-5.121,5.105-5.121v-1.847H44.047v1.847h0.136c2.823,0,5.109,2.292,5.109,5.121
			v10.868c0,2.829-2.286,5.121-5.109,5.121h-0.136v1.904h15.586v-1.904C56.813,61.767,54.527,59.476,54.527,56.646z"/>
	</g>
	<g>
		<path d="M64.207,41.871c3.247-1.692,6.366-2.537,9.368-2.537c2.738,0,4.791,0.702,6.154,2.107c1.362,1.403,2.04,3.413,2.021,6.052
			l-0.111,10.87c-0.027,0.886-0.015,1.605,0.045,2.146c0.061,0.545,0.206,0.956,0.417,1.242c0.228,0.284,0.553,0.49,0.988,0.611
			c0.438,0.121,1.061,0.193,1.884,0.211l0.139,1.197c-2.134,0.84-3.969,1.26-5.508,1.26c-2.074,0-3.439-0.934-4.093-2.796
			c-1.929,1.862-3.975,2.796-6.143,2.796c-2.112,0-3.863-0.607-5.232-1.816s-2.055-2.914-2.055-5.108
			c0-2.739,1.108-4.749,3.321-6.017c2.22-1.271,5.542-1.909,9.974-1.909l0.023-1.956c0.016-1.871-0.378-3.247-1.176-4.123
			c-0.798-0.88-2.044-1.318-3.732-1.318c-1.569,0-3.449,0.393-5.645,1.179L64.207,41.871z M75.376,52.665
			c-2.385,0-4.098,0.352-5.118,1.043c-1.016,0.702-1.523,1.896-1.523,3.585c0,1.533,0.36,2.627,1.082,3.277
			c0.72,0.659,1.578,0.982,2.57,0.982c1.125,0,2.107-0.327,2.944-0.995L75.376,52.665z"/>
	</g>
</g>
</svg>
